<?xml version="1.0" encoding="utf-8"?>
<!-- Generator: Adobe Illustrator 21.1.0, SVG Export Plug-In . SVG Version: 6.00 Build 0)  -->
<svg version="1.1"
	 id="svg10" xmlns:cc="http://creativecommons.org/ns#" xmlns:dc="http://purl.org/dc/elements/1.1/" xmlns:rdf="http://www.w3.org/1999/02/22-rdf-syntax-ns#" xmlns:svg="http://www.w3.org/2000/svg"
	 xmlns="http://www.w3.org/2000/svg" xmlns:xlink="http://www.w3.org/1999/xlink" x="0px" y="0px" viewBox="0 0 220.3 226.3"
	 style="enable-background:new 0 0 220.3 226.3;" xml:space="preserve">
<style type="text/css">
	.st0{clip-path:url(#SVGID_2_);}
	.st1{fill:#FFFFFF;}
</style>
<g id="g18" transform="matrix(1.3333333,0,0,-1.3333333,-22.710399,249.81039)">
	<g id="g20">
		<g>
			<defs>
				<rect id="SVGID_1_" x="-125" y="-33.3" width="1000" height="266.7"/>
			</defs>
			<clipPath id="SVGID_2_">
				<use xlink:href="#SVGID_1_"  style="overflow:visible;"/>
			</clipPath>
			<g id="g22" class="st0">
				<g id="g28" transform="translate(54.9658,119.2676)">
					<path id="path30" class="st1" d="M0,0h42.6v-2.9h-12l25.8-70.4l21,55c3.8,10.1,1.2,15.2-7.8,15.4V0h26.3v-2.9
						c-3.9-0.1-6.9-1.2-8.9-3.4c-2-2.1-3.8-5.5-5.5-9.9l-32.1-85.4L10.2-2.9H0V0z"/>
				</g>
				<g id="g32" transform="translate(114.4922,85.7178)">
					<path id="path34" class="st1" d="M0,0l-0.3,31.9h2C9.8,11.6,21.9,1.4,37.9,1.4c5.8,0,10.8,1.7,15.1,5c4.3,3.4,6.4,7.8,6.4,13.3
						c0,10.5-5.5,17.4-16.4,20.4l-17.9,4.9c-6.3,1.8-11.4,5.1-15.5,9.9c-4.1,4.8-6.2,11.7-6.2,20.8c0,7.3,2.5,13.4,7.4,18.4
						c4.9,5,11.1,7.5,18.7,7.5c4.3,0,7.4-0.2,9.4-0.7c2-0.5,3.6-1.1,4.8-1.8s2.8-1.4,4.7-2c1.9-0.7,4-1,6.3-1c1.2,0,2.4,1.3,3.5,3.8
						h2.5l0.6-24.1h-2.1c-6.7,15.3-16.4,23-29.1,23c-6.2,0-10.9-1.8-14.4-5.3c-3.4-3.5-5.1-7.7-5.1-12.7c0-4.4,1-7.8,3.1-10.4
						c2.1-2.5,4.3-4.3,6.7-5.4c2.4-1.1,5.4-2.1,9-3.2l15.7-4.2c9.2-2.4,15.3-6.5,18.3-12.1c2.9-5.6,4.4-11.4,4.4-17.3
						c0-7.9-2.5-14.9-7.4-21c-4.9-6.1-11.8-9.1-20.8-9.1c-8.1,0-15.7,1.7-22.7,5c-3.5,1.6-5.7,2.4-6.9,2.4c-3.8,0-6-1.9-6.4-5.7H0z"
						/>
				</g>
				<g id="g36" transform="translate(91.0938,91.3965)">
					<path id="path38" class="st1" d="M0,0h3.8L2.5-33.3h-3.9c-0.6,4.1-2.2,6.2-4.9,6.2c-1.7,0-3.8-0.8-6.4-2.5
						c-1.1-0.6-2.6-1.3-4.4-2.1c-1.8-0.8-3.9-1.6-6.4-2.2c-2.4-0.7-5.3-1-8.7-1c-10.8,0-20.3,4.1-28.3,12.4
						c-8,8.3-12.5,19.2-13.4,32.8c-0.2,3.3-0.2,6.5,0,9.7c1.1,14.8,6,26.6,14.6,35.3c8.6,8.7,18.7,13.1,30.2,13.1
						c4.5,0,8-0.8,10.6-2.4c2.6-1.6,5.8-2.4,9.7-2.4c3.1,0,5.1,1.6,6.2,4.8H1l0.3-32.5h-3.4c-1,9.9-3.6,17.3-7.7,22.2
						c-4.1,4.9-10.2,7.4-18.3,7.4c-4.5,0-8.7-1.2-12.7-3.6c-4-2.4-7.3-6.5-9.9-12.3c-2.6-5.7-3.9-13.4-3.9-23V1.8
						c0-12.4,2.8-21.2,8.3-26.3c5.6-5.1,11.6-7.6,18-7.6c6.3,0,12,2.4,17.4,7.3C-5.7-19.9-2.1-11.7,0,0"/>
				</g>
			</g>
		</g>
	</g>
</g>
</svg>
